<svg xmlns="http://www.w3.org/2000/svg" viewBox="228 231 551 582" fill="none" role="img" aria-label="Arc Forge">
  <g transform="translate(228,231) scale(0.921405,0.937198)" fill="currentColor">
    <path d="M 302.5 0 L 325 37.5 L 329 42.5 L 342 65.5 L 346 70.5 L 356 88.5 L 360 93.5 L 373 116.5 L 377 121.5 L 390 144.5 L 394 149.5 L 407 172.5 L 411 177.5 L 420 192.5 L 422 198 L 326.5 198 L 325 196.5 L 306.5 172 L 266 239.5 L 264 244.5 L 256 256.5 L 254 261.5 L 243 278.5 L 241 283.5 L 233 295.5 L 231 300.5 L 223 312.5 L 221 317.5 L 213 329.5 L 211 334.5 L 200 351.5 L 198 356.5 L 190 368.5 L 188 373.5 L 180 385.5 L 178 390.5 L 167 407.5 L 165 412.5 L 147 441.5 L 135 463.5 L 124 480.5 L 122 485.5 L 104 514.5 L 102 519.5 L 96.5 527 L 0 526.5 L 9 512.5 L 35 465.5 L 40 458.5 L 66 411.5 L 71 404.5 L 97 357.5 L 102 350.5 L 128 303.5 L 133 296.5 L 159 249.5 L 164 242.5 L 166 237.5 L 168 235.5 L 170 230.5 L 172 228.5 L 174 223.5 L 192 193.5 L 194 188.5 L 199 181.5 L 201 176.5 L 203 174.5 L 205 169.5 L 207 167.5 L 209 162.5 L 230 127.5 L 232 122.5 L 234 120.5 L 236 115.5 L 238 113.5 L 240 108.5 L 242 106.5 L 244 101.5 L 261 73.5 L 263 68.5 L 265 66.5 L 267 61.5 L 269 59.5 L 271 54.5 L 273 52.5 L 275 47.5 L 277 45.5 L 279 40.5 L 281 38.5 L 283 33.5 L 292 19.5 L 302.5 0 Z"></path>
    <path d="M 321.5 247 L 596.5 247 Q 597.3 246.8 597 249.5 L 570 290.5 L 562 304.5 L 554 315.5 L 553 318.5 L 548.5 324 L 295.5 324 L 294.5 325 L 276 325 L 276 322.5 L 321.5 247 Z"></path>
    <path d="M 246.5 375 L 492 375.5 L 436.5 448 L 400.5 448 L 399.5 447 L 375.5 447 L 374 448.5 L 374 522.5 L 373 525.5 L 300 618.5 L 300 620 L 298 619.5 L 298 477.5 Q 300 476.5 298 475.5 L 298 466.5 Q 296.3 465.8 297 462.5 L 290 446.5 L 267 410.5 L 252 384.5 L 248 379.5 L 246 375.5 L 246.5 375 Z"></path>
  </g>
</svg>